<svg xmlns="http://www.w3.org/2000/svg" xmlns:xlink="http://www.w3.org/1999/xlink" height="754" width="1920"><defs><linearGradient id="c"><stop stop-color="#d0bb8e" offset="0"/><stop stop-color="#fff" offset="1"/></linearGradient><linearGradient y2="292" x2="64" y1="254" x1="64" gradientTransform="matrix(1.3 0 0 1 -19.2 16.87)" gradientUnits="userSpaceOnUse" id="f" xlink:href="#b"/><linearGradient id="b"><stop stop-color="#cdab8f" offset="0"/><stop stop-color="#d3b69d" offset="1"/></linearGradient><linearGradient y2="292" x2="64" y1="254" x1="64" gradientTransform="matrix(1.3 0 0 1 -19.2 -4)" gradientUnits="userSpaceOnUse" id="l" xlink:href="#b"/><linearGradient gradientTransform="scale(-.05186 .07334) rotate(45 -4520.11 -3039.735)" y2="-127.399" x2="158.518" y1="-97.698" x1="128.817" gradientUnits="userSpaceOnUse" id="e" xlink:href="#c"/><linearGradient id="a"><stop stop-color="#e3cfbf" offset="0"/><stop stop-color="#e7d5c7" offset="1"/></linearGradient><linearGradient y2="250" x2="64" y1="180" x1="64" gradientTransform="matrix(1.3 0 0 .83333 -19.2 34)" gradientUnits="userSpaceOnUse" id="m" xlink:href="#a"/><linearGradient xlink:href="#b" id="h" gradientUnits="userSpaceOnUse" gradientTransform="matrix(1.3 0 0 1 -19.2 -4)" x1="64" y1="254" x2="64" y2="292"/><linearGradient xlink:href="#a" id="i" gradientUnits="userSpaceOnUse" gradientTransform="matrix(1.3 0 0 .83333 -19.2 34)" x1="64" y1="180" x2="64" y2="250"/><linearGradient xlink:href="#b" id="j" gradientUnits="userSpaceOnUse" gradientTransform="matrix(1.3 0 0 1 -19.2 -4)" x1="64" y1="254" x2="64" y2="292"/><linearGradient xlink:href="#a" id="k" gradientUnits="userSpaceOnUse" gradientTransform="matrix(1.3 0 0 .83333 -19.2 34)" x1="64" y1="180" x2="64" y2="250"/><clipPath id="d" clipPathUnits="userSpaceOnUse"><path stroke-width="1.357" fill="#4a86cf" overflow="visible" color="#000" style="marker:none" d="M2330.729-970.526h1007.5V-1366.5h-1007.5z"/></clipPath><clipPath id="g" clipPathUnits="userSpaceOnUse"><circle style="marker:none" cx="239.051" cy="77.264" r="19.711" fill="#9141ac" stroke-width=".529" stroke-linecap="round"/></clipPath><clipPath clipPathUnits="userSpaceOnUse" id="o"><path style="font-variation-settings:normal;marker:none" class="powerclip" d="M399.306 389.64h285.156v408.042H399.306zm216.553 258.086a73.976 73.976 0 00-73.975-73.975 73.976 73.976 0 00-73.976 73.975 73.976 73.976 0 0073.976 73.976 73.976 73.976 0 0073.975-73.976z" display="block" fill="#77767b" stroke-width="5.043" stroke-linecap="round"/></clipPath></defs><path fill="#62a0ea" overflow="visible" color="#000" style="marker:none" d="M0 754h1920V0H0z"/><g transform="translate(-4440.203 2603.279) scale(1.90507)" clip-path="url(#d)"><path style="font-variation-settings:normal;marker:none" d="M3156.883-1044.317h87.634c2.023 0 4.848 3.651 4.848 3.651v1.19s-2.825 3.65-4.848 3.65h-87.634a3.643 3.643 0 01-3.651-3.65v-1.19a3.643 3.643 0 013.651-3.651z" fill-opacity=".102"/><g transform="rotate(90 2637.913 1103.389) scale(2.88666)"><path fill="url(#e)" d="M170.003 170.124l-1.993 1.993h3.986z" style="marker:none"/><path fill="#424048" style="marker:none" d="M170.003 170.124l-.797.797h1.595z"/><path fill="#f6d32d" d="M171.598 172.117h-3.189v27.633h3.189z"/><path fill="#f9f06b" d="M169.184 172.117h-1.174v27.643l1.174-.01z"/><path fill="#e5a50a" d="M170.823 172.117h1.173v27.643l-1.173-.01z"/><rect fill="#f66151" style="marker:none" width="3.969" height="3.969" x="168.01" y="199.76" rx="1.554" ry="1.554"/><path fill="#ed333b" d="M169.565 199.76a1.31 1.31 0 00-.166.01 1.55 1.55 0 011.39 1.545v.86a1.55 1.55 0 01-1.39 1.545c.055.006.11.01.166.01h.86c.86 0 1.554-.694 1.554-1.555v-.86c0-.861-.693-1.555-1.554-1.555z" style="marker:none"/><rect fill="#f6f5f4" ry="0" rx="0" y="199.76" x="168.01" height="1.323" width="3.969" style="marker:none"/><rect fill="#deddda" style="marker:none" width="1.191" height="1.323" x="170.789" y="199.76" rx="0" ry="0"/></g><g transform="translate(-1000.99 4648.193) scale(.93209)"><path transform="translate(3662.15 -6599.407) scale(1.38952)" d="M12 232.87h104v76H12z" fill="url(#f)"/><path d="M3678.824-6343.47h144.51v93.972h-144.51z" fill="#ac815b"/><path d="M3678.824-6249.498h144.51v2.779h-144.51z" fill="#fff" opacity=".211" style="marker:none"/><path fill="#e7d5c7" d="M3823.141-6248.491v-95.055l35.515 20.505v92.076z"/><path d="M3678.868-6342.373h144.07v53.989h-144.07z" fill="#7d5738" style="marker:none"/><path fill="#e7d5c7" d="M3678.859-6248.491v-95.055l-35.515 20.505v92.076z"/><rect fill="#e7d5c7" style="marker:none" width="144.375" height="1.25" x="3678.625" y="-6343.605" rx="0" ry="0"/><path fill="#e7d5c7" style="marker:none" d="M3679-6249.48h145v39h-145z"/></g><g transform="matrix(1.06152 0 0 1.06152 2807.401 -1274.023)"><rect ry="7.673" rx="7.673" y="152.889" x="254.983" height="26.458" width="27.359" style="marker:none" fill="none" stroke="#fff" stroke-width="4.233" stroke-linecap="round"/><circle style="marker:none" cx="251.486" cy="152.003" r="21.299" fill="#fff"/><path d="M251.369 160.999a21.84 21.84 0 00-21.84 21.84 21.84 21.84 0 0021.84 21.84 21.84 21.84 0 0021.42-17.594h5.54c1.329 0 2.4-1.07 2.4-2.4 0-1.329-1.071-2.399-2.4-2.399h-5.139A21.84 21.84 0 00251.37 161z" style="marker:none" fill-opacity=".102"/><path style="marker:none" fill="#fff" d="M230.187 148.96h42.333v32.015h-42.333z"/><circle r="21.299" cy="180.843" cx="251.486" style="marker:none" fill="#fff"/><g clip-path="url(#g)" transform="matrix(.9094 0 0 .9094 34.094 81.74)"><circle style="marker:none" cx="239.051" cy="77.264" r="19.711" fill="#deddda"/><circle r="19.711" cy="85.201" cx="239.051" style="marker:none" fill="#241f31"/></g></g><g opacity=".42" fill="none" stroke="#fff" stroke-width="1.323" stroke-linecap="round"><path d="M3051.331-1145.66h51.735M3051.331-1156.162h34.109M3053.314-1166.3h31.395M3083.098-1116.084v-15.65c0-2.192 1.337-3.507 3.898-3.507h15.733" stroke-width="5.16650022"/><path style="marker:none" d="M3051.28-1145.754a5.166 5.166 0 01-4.475-2.583 5.166 5.166 0 010-5.167 5.166 5.166 0 014.475-2.583M3103.078-1135.248a5.166 5.166 0 004.474-2.583 5.166 5.166 0 000-5.167 5.166 5.166 0 00-4.474-2.583M3084.082-1156.07a5.166 5.166 0 004.474-2.584 5.166 5.166 0 000-5.166 5.166 5.166 0 00-4.474-2.583M3052.133-1166.418a5.166 5.166 0 01-3.653-1.514 5.166 5.166 0 01-1.513-3.653" stroke-width="5.16650022"/><path d="M3046.9-1172.23v-13.744" stroke-width="5.16650022"/></g><path style="marker:none" fill-opacity=".102" d="M2235.023-1083.939h114.905v75.131h-114.905z"/><path fill="url(#h)" d="M12 212h104v76H12z" transform="matrix(1.10486 0 0 1.10486 2221.764 -1331.428)"/><path fill="url(#i)" d="M12 184h104v68H12z" transform="matrix(1.10486 0 0 1.10486 2221.764 -1331.428)"/><path style="marker:none" opacity=".05" d="M2235.022-1053.004h114.906v2.21h-114.906z"/><path style="marker:none" opacity=".2" fill="#fff" d="M2237.232-1128.134h2.21v75.13h-2.21zM2345.508-1128.134h2.21v75.13h-2.21z"/><path style="marker:none" fill-opacity=".102" d="M2356.557-1083.939h114.905v75.131h-114.905z"/><path fill="url(#j)" d="M12 212h104v76H12z" transform="matrix(1.10486 0 0 1.10486 2343.298 -1331.428)"/><path fill="url(#k)" d="M12 184h104v68H12z" transform="matrix(1.10486 0 0 1.10486 2343.298 -1331.428)"/><path style="marker:none" opacity=".05" d="M2356.557-1053.004h114.905v2.21h-114.905z"/><path style="marker:none" opacity=".2" fill="#fff" d="M2358.766-1128.134h2.21v75.13h-2.21zM2467.042-1128.134h2.21v75.13h-2.21z"/><path d="M2276.477-1128.457h73.582v75.42h-68.484l-5.098-4.362z" style="marker:none" fill-opacity=".102"/><path style="marker:none" fill="#9a9996" d="M2349.928-1097.198v7.216h-114.905v-7.216zM2420.513-1088.764v7.216h-75.029v-7.216z"/><path style="marker:none" fill="#77767b" d="M2288.867-1053.003h7.216v39.687h-7.216z"/><path d="M2356.714-1128.457h35.665l21.628 23.565v51.854h-57.293z" style="marker:none" fill-opacity=".102"/><path style="marker:none" fill="#9a9996" d="M2288.867-1128.03h7.216v75.027h-7.216z"/><g><path fill="url(#l)" d="M12 212h104v76H12z" transform="matrix(1.10486 0 0 1.10486 2263.37 -1375.622)"/><path fill="url(#m)" d="M12 184h104v68H12z" transform="matrix(1.10486 0 0 1.10486 2263.37 -1375.622)"/><path style="marker:none" opacity=".05" d="M2276.628-1097.198h114.905v2.21h-114.905z"/><path style="marker:none" opacity=".2" fill="#fff" d="M2278.838-1172.328h2.21v75.13h-2.21zM2387.114-1172.328h2.21v75.13h-2.21z"/></g><path style="marker:none" fill="#77767b" d="M2404.647-1053.105h7.216v39.686h-7.216z"/><path style="marker:none" fill="#9a9996" d="M2404.647-1128.134h7.216v75.029h-7.216z"/><path style="marker:none" opacity=".136" d="M2428.66-1088.667h43.05v6.857h-43.05z"/><path style="marker:none" fill="#9a9996" d="M2471.41-1089.185v7.216l-43.404-13.828v-7.216zM2391.534-1141.39v7.215h-114.905v-7.216z"/><path style="marker:none" fill="#77767b" d="M2330.472-1097.198h7.216v39.687h-7.216z"/><path style="marker:none" fill="#9a9996" d="M2330.472-1172.226h7.216v75.028h-7.216z"/><g transform="scale(.65676) rotate(45 4198.437 3923.931)"><path d="M69.202 198.092c-2.25 2.117-4.37 6.101-4.37 13.602l-.014 34.5-10.179 10.178a1.92 1.92 0 00-1.343.158l-12.125 6.088c-4.633-2.888-10.848-2.327-14.864 1.688-4.671 4.672-4.672 12.321 0 16.993 4.67 4.671 12.32 4.671 16.992 0l.043-.044.005.045 15.556-15.556.017.017 5.892-5.896-.004 7.829h.025v21.999l.035-.028v.06c0 6.606 5.41 12.016 12.016 12.016s12.014-5.409 12.014-12.015c0-5.68-3.998-10.471-9.317-11.705l-4.269-12.879a1.92 1.92 0 00-.838-1.06v-13.889l24.027-24.047c11.314-11.314 4.496-18.132 4.496-18.132l-28.523 28.523v-40.845s-2.72 0-5.272 2.4zm-39.36 69.75a6.978 6.978 0 019.922 0 6.979 6.979 0 010 9.921 6.979 6.979 0 01-9.922 0 6.978 6.978 0 010-9.921zm42.069 16.91a6.994 6.994 0 014.972-2.043 6.979 6.979 0 017.015 7.017 6.978 6.978 0 01-7.015 7.015 6.979 6.979 0 01-7.016-7.016c0-1.952.778-3.706 2.044-4.972z" style="marker:none" fill-opacity=".102" fill-rule="evenodd"/><path d="M65.995 268.962h6v-72l-1.415-1.414s-6.585 5.061-6.585 17.414l.005 27.19.097 2.723 1.898 2.087z" fill="#9a9996" fill-rule="evenodd"/><use xlink:href="#n" transform="scale(-1 1) rotate(-45 -.464 413.359)" width="100%" height="100%"/><g id="n" display="inline"><path d="M55.975 290h9.667v-72S56 218 56 234z" fill="#fff" fill-rule="evenodd" transform="scale(-1 1) rotate(-45 -31.3 415.202)"/><g transform="scale(-1 1) rotate(-45 -32.3 412.788)"><path d="M54 312v-24c0-2 2-2 2-2h6.037s1.918-.136 2.444 1.45l4.397 13.27z" fill="#ed333b" fill-rule="evenodd"/><circle r="9.516" cy="312.033" cx="-66.05" transform="scale(-1 1)" fill="none" stroke="#ed333b" stroke-width="5" stroke-linecap="round" stroke-linejoin="round"/><circle cx="-66" cy="312" r="7" transform="scale(-1 1)" fill="none" stroke="#e01b24" stroke-width="2" stroke-linecap="round" stroke-linejoin="round"/></g></g><circle transform="scale(-1 1) rotate(-45)" cx="-223.446" cy="125.865" r="2" fill="#3d3846"/></g><g transform="matrix(2.01546 0 0 2.01546 3309.219 -1511.031)"><g transform="matrix(.5269 0 0 .5269 161.93 58.874)"><rect ry="8" rx="8" y="190.009" x="-348" height="104" width="88" style="marker:none" fill-opacity=".102"/><rect style="marker:none" width="88" height="104" x="-348" y="188" rx="8" ry="8" fill="#1e737e"/><rect ry="8" rx="8" y="188" x="-348" height="102" width="88" style="marker:none" fill="#f6f5f4"/><path d="M-340.177 188h64.72a7.805 7.805 0 017.823 7.822l-.102 94.178h-72.441a7.805 7.805 0 01-7.823-7.822v-86.356a7.805 7.805 0 017.823-7.822z" style="marker:none" fill="#fff"/><rect ry="8" rx="8" y="180" x="-348" height="100" width="88" style="marker:none" fill="#1e737e"/><rect style="marker:none" width="88" height="98" x="-348" y="180" rx="8" ry="8" fill="#27a0a4"/></g><g transform="matrix(.5269 0 0 .5269 -31.97 60.455)" fill="#3d3846" stroke="#241f31" stroke-width="2"><circle cx="32" cy="187" r="3"/><circle r="3" cy="187" cx="96"/><circle cx="48" cy="187" r="3"/><circle cx="64" cy="187" r="3"/><circle r="3" cy="187" cx="80"/></g><path d="M-15.125 149.486a1.054 1.054 0 00-1.037 1.069v8.43a1.054 1.054 0 102.107 0v-8.43a1.054 1.054 0 00-1.07-1.069zm8.432 0a1.054 1.054 0 00-1.04 1.069v8.43a1.054 1.054 0 102.108 0v-8.43a1.054 1.054 0 00-1.068-1.069zm8.43 0a1.054 1.054 0 00-1.038 1.069v8.43a1.054 1.054 0 102.108 0v-8.43a1.054 1.054 0 00-1.07-1.069zm8.429 0a1.054 1.054 0 00-1.037 1.069v8.43a1.054 1.054 0 102.107 0v-8.43a1.054 1.054 0 00-1.07-1.069zm8.432 0a1.054 1.054 0 00-1.04 1.069v8.43a1.054 1.054 0 102.108 0v-8.43a1.054 1.054 0 00-1.068-1.069z" style="line-height:normal;font-variant-ligatures:normal;font-variant-position:normal;font-variant-caps:normal;font-variant-numeric:normal;font-variant-alternates:normal;font-feature-settings:normal;text-indent:0;text-align:start;text-decoration-line:none;text-decoration-style:solid;text-decoration-color:#000;text-transform:none;text-orientation:mixed;white-space:normal;shape-padding:0;isolation:auto;mix-blend-mode:normal;solid-color:#000;solid-opacity:1" color="#000" font-weight="400" font-family="sans-serif" overflow="visible" fill="#deddda"/><circle r="1.058" cy="151.642" cx="-15.081" style="marker:none" fill="#fff"/><circle style="marker:none" cx="-6.639" cy="151.642" r="1.058" fill="#fff"/><circle r="1.058" cy="151.642" cx="1.757" style="marker:none" fill="#fff"/><circle style="marker:none" cx="10.199" cy="151.642" r="1.058" fill="#fff"/><circle r="1.058" cy="151.642" cx="18.665" style="marker:none" fill="#fff"/></g><g transform="matrix(0 2.5918 2.5918 0 2806.016 -1463.861)"><path style="font-variation-settings:normal;marker:none" d="M174.888 199.154v-33.812c0-.78 1.408-7.946 1.408-7.946h.46s1.408 7.165 1.408 7.946v33.812c0 .78-.628 1.409-1.409 1.409h-.459c-.78 0-1.408-.629-1.408-1.409z" fill-opacity=".102"/><rect style="marker:none" width="3.44" height="2.117" x="173.567" y="198.702" rx=".468" ry=".468" fill="#1a5fb4"/><path style="marker:none" d="M174.805 157.427h.963c.1 0 .164.083.18.184l1.058 6.482c.043.261-.208.478-.467.478h-2.505c-.259 0-.51-.217-.467-.478l1.058-6.482c.016-.1.08-.184.18-.184z" fill="#1a5fb4"/><path style="marker:none" fill="#fff" d="M173.302 164.042h3.969v35.719h-3.969z"/><rect style="marker:none" width=".794" height="2.381" x="174.89" y="155.84" rx=".397" ry=".468" fill="#1a5fb4"/><rect style="marker:none" width="1.323" height="1.058" x="174.625" y="156.633" rx="0" ry="0" fill="#fff"/><path style="marker:none" fill="#f6f5f4" d="M175.948 164.042h1.323v35.719h-1.323z"/></g><g stroke-width="1.264"><g clip-path="url(#o)" transform="matrix(.35516 0 0 .35516 2607.869 -1383.906)" stroke-width=".986"><path style="font-variation-settings:normal;marker:none" d="M424.979 482.036h233.81a20.628 20.628 0 0120.673 20.673v269.3a20.628 20.628 0 01-20.674 20.673H424.98a20.628 20.628 0 01-20.673-20.674V502.71a20.628 20.628 0 0120.673-20.673z" fill-opacity=".102"/><path style="font-variation-settings:normal;marker:none" d="M424.979 475.975h233.81a20.628 20.628 0 0120.673 20.673v269.3a20.628 20.628 0 01-20.674 20.673H424.98a20.628 20.628 0 01-20.673-20.674V496.65a20.628 20.628 0 0120.673-20.674z" fill="#5e5c64"/><path d="M404.306 394.64h275.156v310.646H404.306z" fill="#434348"/></g><path style="marker:none" d="M2963.049-1353.995v192.426a5.172 5.172 0 01-5.173 5.172H2642.7a5.172 5.172 0 01-5.172-5.172v-192.426a5.172 5.172 0 015.172-5.172h315.177a5.172 5.172 0 015.173 5.172z" stroke-width=".959"/><path fill="#1c71d8" d="M2644.461-1352.612h312.234v188.641h-312.234z"/><g fill="#fff" stroke-width="1.128"><path opacity=".2" d="M2875.792-1272.016l30.96-30.96v30.963zm30.957.003l28.74 28.74h-28.74z"/><path opacity=".1" d="M2849.187-1186.097l28.74-28.761h-28.74z"/><path opacity=".2" d="M2906.666-1243.6l-28.74 28.74h28.74z"/></g></g><g transform="matrix(3.14396 0 0 3.14396 2519.366 -1666.054)" stroke-width="1.042"><rect style="marker:none" width="63.5" height="34.315" x="57.958" y="185.417" rx="1.771" ry="1.771" fill-opacity=".102"/><rect ry="1.771" rx="1.771" y="183.9" x="57.958" height="34.51" width="63.5" style="marker:none" fill="#5e5c64"/><rect style="marker:none" width="63.5" height="34.315" x="57.958" y="182.691" rx="1.771" ry="1.771" fill="#9a9996"/><path style="marker:none" d="M89.808 207.032h20.13a1.01 1.01 0 011.013 1.013v3.266a1.01 1.01 0 01-1.013 1.013h-20.13a1.01 1.01 0 01-1.012-1.013v-3.266a1.01 1.01 0 011.012-1.013zM113.21 207.032h4.59a1.01 1.01 0 011.012 1.013v3.266a1.01 1.01 0 01-1.013 1.013h-4.588a1.01 1.01 0 01-1.013-1.013v-3.266a1.01 1.01 0 011.013-1.013zM109.242 200.418h3.266a1.01 1.01 0 011.013 1.013v3.266a1.01 1.01 0 01-1.013 1.012h-3.266a1.01 1.01 0 01-1.013-1.012v-3.266a1.01 1.01 0 011.013-1.013zM101.304 200.418h4.589a1.01 1.01 0 011.013 1.013v3.266a1.01 1.01 0 01-1.013 1.012h-4.589a1.01 1.01 0 01-1.013-1.012v-3.266a1.01 1.01 0 011.013-1.013zM93.367 200.418h4.588a1.01 1.01 0 011.013 1.013v3.266a1.01 1.01 0 01-1.013 1.012h-4.588a1.01 1.01 0 01-1.013-1.012v-3.266a1.01 1.01 0 011.013-1.013zM85.43 200.418h4.588a1.01 1.01 0 011.013 1.013v3.266a1.01 1.01 0 01-1.013 1.012h-4.589a1.01 1.01 0 01-1.013-1.012v-3.266a1.01 1.01 0 011.013-1.013zM77.492 200.418h4.588a1.01 1.01 0 011.013 1.013v3.266a1.01 1.01 0 01-1.013 1.012h-4.588a1.01 1.01 0 01-1.013-1.012v-3.266a1.01 1.01 0 011.013-1.013zM69.554 200.418h4.589a1.01 1.01 0 011.013 1.013v3.266a1.01 1.01 0 01-1.013 1.012h-4.589a1.01 1.01 0 01-1.013-1.012v-3.266a1.01 1.01 0 011.013-1.013zM105.273 193.803h4.589a1.01 1.01 0 011.013 1.013v3.266a1.01 1.01 0 01-1.013 1.013h-4.589a1.01 1.01 0 01-1.013-1.013v-3.266a1.01 1.01 0 011.013-1.013zM97.336 193.803h4.588a1.01 1.01 0 011.013 1.013v3.266a1.01 1.01 0 01-1.013 1.013h-4.588a1.01 1.01 0 01-1.013-1.013v-3.266a1.01 1.01 0 011.013-1.013zM89.398 193.803h4.589A1.01 1.01 0 0195 194.816v3.266a1.01 1.01 0 01-1.013 1.013h-4.589a1.01 1.01 0 01-1.013-1.013v-3.266a1.01 1.01 0 011.013-1.013zM81.46 193.803h4.59a1.01 1.01 0 011.012 1.013v3.266a1.01 1.01 0 01-1.013 1.013h-4.588a1.01 1.01 0 01-1.013-1.013v-3.266a1.01 1.01 0 011.013-1.013zM73.523 193.803h4.589a1.01 1.01 0 011.013 1.013v3.266a1.01 1.01 0 01-1.013 1.013h-4.589a1.01 1.01 0 01-1.013-1.013v-3.266a1.01 1.01 0 011.013-1.013zM61.617 193.803h8.557a1.01 1.01 0 011.013 1.013v3.266a1.01 1.01 0 01-1.013 1.013h-8.557a1.01 1.01 0 01-1.013-1.013v-3.266a1.01 1.01 0 011.013-1.013zM109.242 187.189h8.557a1.01 1.01 0 011.013 1.013v3.265a1.01 1.01 0 01-1.013 1.013h-8.557a1.01 1.01 0 01-1.013-1.013v-3.265a1.01 1.01 0 011.013-1.013zM101.304 187.189h4.589a1.01 1.01 0 011.013 1.013v3.265a1.01 1.01 0 01-1.013 1.013h-4.589a1.01 1.01 0 01-1.013-1.013v-3.265a1.01 1.01 0 011.013-1.013zM93.367 187.189h4.588a1.01 1.01 0 011.013 1.013v3.265a1.01 1.01 0 01-1.013 1.013h-4.588a1.01 1.01 0 01-1.013-1.013v-3.265a1.01 1.01 0 011.013-1.013zM85.43 187.189h4.588a1.01 1.01 0 011.013 1.013v3.265a1.01 1.01 0 01-1.013 1.013h-4.589a1.01 1.01 0 01-1.013-1.013v-3.265a1.01 1.01 0 011.013-1.013zM77.492 187.189h4.588a1.01 1.01 0 011.013 1.013v3.265a1.01 1.01 0 01-1.013 1.013h-4.588a1.01 1.01 0 01-1.013-1.013v-3.265a1.01 1.01 0 011.013-1.013zM69.554 187.189h4.589a1.01 1.01 0 011.013 1.013v3.265a1.01 1.01 0 01-1.013 1.013h-4.589a1.01 1.01 0 01-1.013-1.013v-3.265a1.01 1.01 0 011.013-1.013zM61.617 187.189h4.588a1.01 1.01 0 011.013 1.013v3.265a1.01 1.01 0 01-1.013 1.013h-4.588a1.01 1.01 0 01-1.013-1.013v-3.265a1.01 1.01 0 011.013-1.013zM61.617 200.418h4.588a1.01 1.01 0 011.013 1.013v3.266a1.01 1.01 0 01-1.013 1.012h-4.588a1.01 1.01 0 01-1.013-1.012v-3.266a1.01 1.01 0 011.013-1.013zM73.523 207.032h4.589a1.01 1.01 0 011.013 1.013v3.266a1.01 1.01 0 01-1.013 1.013h-4.589a1.01 1.01 0 01-1.013-1.013v-3.266a1.01 1.01 0 011.013-1.013zM61.617 207.032h8.557a1.01 1.01 0 011.013 1.013v3.266a1.01 1.01 0 01-1.013 1.013h-8.557a1.01 1.01 0 01-1.013-1.013v-3.266a1.01 1.01 0 011.013-1.013zM113.21 193.803h4.59a1.01 1.01 0 011.012 1.013v3.266a1.01 1.01 0 01-1.013 1.013h-4.589a1.01 1.01 0 01-1.012-1.013v-3.266a1.01 1.01 0 011.013-1.013z"/><path style="marker:none" d="M115.856 193.803h1.943a1.01 1.01 0 011.013 1.013v9.88a1.01 1.01 0 01-1.013 1.013h-1.943a1.01 1.01 0 01-1.013-1.012v-9.88a1.01 1.01 0 011.013-1.014z"/><path style="marker:none" d="M113.21 206.503a1.01 1.01 0 00-1.012 1.013v3.266a1.01 1.01 0 001.013 1.013h4.588c.561 0 1.013-.452 1.013-1.013v-3.266c0-.561-.452-1.013-1.013-1.013zM89.809 206.503a1.01 1.01 0 00-1.013 1.013v3.266a1.01 1.01 0 001.013 1.013h20.13c.56 0 1.012-.452 1.012-1.013v-3.266c0-.561-.452-1.013-1.013-1.013zM73.523 206.503a1.01 1.01 0 00-1.013 1.013v3.266a1.01 1.01 0 001.013 1.013h4.589c.56 0 1.013-.452 1.013-1.013v-3.266c0-.561-.452-1.013-1.013-1.013zM61.617 206.503a1.01 1.01 0 00-1.013 1.013v3.266a1.01 1.01 0 001.013 1.013h8.557c.561 0 1.013-.452 1.013-1.013v-3.266c0-.561-.452-1.013-1.013-1.013zM109.242 199.889a1.01 1.01 0 00-1.013 1.012v3.266a1.01 1.01 0 001.013 1.013h3.265c.562 0 1.014-.451 1.014-1.013v-3.266c0-.56-.452-1.012-1.014-1.012zM101.304 199.889a1.01 1.01 0 00-1.012 1.012v3.266a1.01 1.01 0 001.012 1.013h4.589a1.01 1.01 0 001.013-1.013v-3.266a1.01 1.01 0 00-1.013-1.012zM93.367 199.889a1.01 1.01 0 00-1.013 1.012v3.266a1.01 1.01 0 001.013 1.013h4.588a1.01 1.01 0 001.013-1.013v-3.266a1.01 1.01 0 00-1.013-1.012zM85.43 199.889a1.01 1.01 0 00-1.013 1.012v3.266a1.01 1.01 0 001.012 1.013h4.589c.56 0 1.013-.451 1.013-1.013v-3.266c0-.56-.452-1.012-1.013-1.012zM77.492 199.889a1.01 1.01 0 00-1.013 1.012v3.266a1.01 1.01 0 001.013 1.013h4.588a1.01 1.01 0 001.013-1.013v-3.266a1.01 1.01 0 00-1.013-1.012zM69.554 199.889a1.01 1.01 0 00-1.012 1.012v3.266a1.01 1.01 0 001.012 1.013h4.589c.56 0 1.013-.451 1.013-1.013v-3.266c0-.56-.452-1.012-1.013-1.012zM61.617 199.889a1.01 1.01 0 00-1.013 1.012v3.266a1.01 1.01 0 001.013 1.013h4.588c.561 0 1.014-.451 1.014-1.013v-3.266c0-.56-.453-1.012-1.014-1.012z" fill="#36343d"/><path style="marker:none" d="M113.21 193.274c-.56 0-1.013.452-1.013 1.013v3.266c0 .561.452 1.013 1.014 1.013h1.622v5.601a1.01 1.01 0 001.013 1.013h1.943a1.01 1.01 0 001.013-1.013v-6.514c.003-.034.01-.066.01-.1v-3.266a1.01 1.01 0 00-1.013-1.013h-1.953zM105.273 193.274a1.01 1.01 0 00-1.013 1.013v3.266a1.01 1.01 0 001.013 1.013h4.589c.56 0 1.013-.452 1.013-1.013v-3.266c0-.561-.452-1.013-1.013-1.013zM97.336 193.274a1.01 1.01 0 00-1.013 1.013v3.266a1.01 1.01 0 001.013 1.013h4.588c.561 0 1.013-.452 1.013-1.013v-3.266c0-.561-.452-1.013-1.013-1.013zM89.398 193.274a1.01 1.01 0 00-1.013 1.013v3.266a1.01 1.01 0 001.013 1.013h4.589a1.01 1.01 0 001.012-1.013v-3.266a1.01 1.01 0 00-1.012-1.013zM81.46 193.274a1.01 1.01 0 00-1.012 1.013v3.266a1.01 1.01 0 001.013 1.013h4.588c.561 0 1.013-.452 1.013-1.013v-3.266c0-.561-.452-1.013-1.013-1.013zM73.523 193.274a1.01 1.01 0 00-1.013 1.013v3.266a1.01 1.01 0 001.013 1.013h4.589c.56 0 1.013-.452 1.013-1.013v-3.266c0-.561-.452-1.013-1.013-1.013zM61.617 193.274a1.01 1.01 0 00-1.013 1.013v3.266a1.01 1.01 0 001.013 1.013h8.557c.561 0 1.013-.452 1.013-1.013v-3.266c0-.561-.452-1.013-1.013-1.013zM109.242 186.66a1.01 1.01 0 00-1.013 1.012v3.266a1.01 1.01 0 001.013 1.013h8.557c.561 0 1.013-.452 1.013-1.013v-3.266c0-.56-.452-1.013-1.013-1.013zM101.304 186.66a1.01 1.01 0 00-1.012 1.012v3.266a1.01 1.01 0 001.012 1.013h4.589c.56 0 1.013-.452 1.013-1.013v-3.266c0-.56-.452-1.013-1.013-1.013zM93.367 186.66a1.01 1.01 0 00-1.013 1.012v3.266a1.01 1.01 0 001.013 1.013h4.588a1.01 1.01 0 001.013-1.013v-3.266a1.01 1.01 0 00-1.013-1.013zM85.43 186.66a1.01 1.01 0 00-1.013 1.012v3.266a1.01 1.01 0 001.012 1.013h4.589c.56 0 1.013-.452 1.013-1.013v-3.266c0-.56-.452-1.013-1.013-1.013zM77.492 186.66a1.01 1.01 0 00-1.013 1.012v3.266a1.01 1.01 0 001.013 1.013h4.588c.561 0 1.014-.452 1.014-1.013v-3.266c0-.56-.453-1.013-1.014-1.013zM69.554 186.66a1.01 1.01 0 00-1.012 1.012v3.266a1.01 1.01 0 001.012 1.013h4.589c.56 0 1.013-.452 1.013-1.013v-3.266c0-.56-.452-1.013-1.013-1.013zM61.617 186.66a1.01 1.01 0 00-1.013 1.012v3.266a1.01 1.01 0 001.013 1.013h4.588c.561 0 1.014-.452 1.014-1.013v-3.266c0-.56-.453-1.013-1.014-1.013z" fill="#36343d"/><path style="marker:none" d="M81.537 207.032h4.589a1.01 1.01 0 011.013 1.013v3.266a1.01 1.01 0 01-1.013 1.013h-4.589a1.01 1.01 0 01-1.013-1.013v-3.266a1.01 1.01 0 011.013-1.013z"/><path style="marker:none" d="M81.537 206.503a1.01 1.01 0 00-1.013 1.013v3.266a1.01 1.01 0 001.013 1.013h4.589c.56 0 1.013-.452 1.013-1.013v-3.266c0-.561-.452-1.013-1.013-1.013z" fill="#36343d"/></g><g transform="matrix(2.18287 0 0 2.18287 2427.642 -1437.727)" stroke-width="1.501"><rect style="marker:none" width="23.283" height="35.454" x="248.708" y="158.75" rx="17.471" ry="17.471" fill-opacity=".102"/><rect ry="11.642" rx="11.642" y="157.692" x="248.708" height="35.454" width="23.283" style="marker:none" fill="#deddda"/><rect style="marker:none" width="23.283" height="35.454" x="248.708" y="156.104" rx="11.642" ry="11.642" fill="#f6f5f4"/><path d="M260.615 170.656v-14.552" fill="#5e5c64" stroke="#5e5c64" stroke-width=".397"/><rect style="marker:none" width="5.292" height="13.229" x="257.969" y="160.073" rx="2.646" ry="2.646" fill="#36343d"/><circle r="1.455" cy="162.003" cx="260.603" style="marker:none" fill="#c0bfbc" fill-opacity=".102"/></g></g></svg>